<svg width="50" height="50" viewBox="0 0 50 50" fill="none" xmlns="http://www.w3.org/2000/svg">
<path d="M3.96851 13.9178C4.58883 13.3301 5.43006 13 6.30719 13C7.18433 13 8.02555 13.3301 8.64588 13.9178L25.02 29.4338L41.3941 13.9178C42.0179 13.3468 42.8535 13.0308 43.7208 13.038C44.5882 13.0451 45.4178 13.3748 46.0311 13.9559C46.6445 14.5371 46.9923 15.3233 46.9999 16.1452C47.0074 16.967 46.674 17.7588 46.0714 18.35L27.3587 36.0822C26.7383 36.6699 25.8971 37 25.02 37C24.1428 37 23.3016 36.6699 22.6813 36.0822L3.96851 18.35C3.34837 17.7622 3 16.9651 3 16.1339C3 15.3027 3.34837 14.5056 3.96851 13.9178Z" fill="#212529"/>
</svg>
