<svg width="50" height="50" viewBox="0 0 50 50" fill="none" xmlns="http://www.w3.org/2000/svg">
<path d="M46.0315 36.0822C45.4112 36.6699 44.5699 37 43.6928 37C42.8157 37 41.9744 36.6699 41.3541 36.0822L24.98 20.5662L8.60593 36.0822C7.98206 36.6532 7.14647 36.9692 6.27915 36.962C5.41183 36.9549 4.58217 36.6252 3.96886 36.0441C3.35555 35.4629 3.00766 34.6767 3.00012 33.8548C2.99259 33.033 3.32601 32.2412 3.92857 31.65L22.6413 13.9178C23.2617 13.3301 24.1029 13 24.98 13C25.8572 13 26.6984 13.3301 27.3187 13.9178L46.0315 31.65C46.6516 32.2378 47 33.0349 47 33.8661C47 34.6973 46.6516 35.4944 46.0315 36.0822Z" fill="white"/>
</svg>
